# xmcd
# 
# Track frame offsets:
#     150
#     11378
#     26518
#     43203
#     55556
#     67170
#     79557
#     96154
#     109717
#     123826
#     136182
#     148723
#     161305
#     177690
#     188120
#     197295
# 
# Disc length: 2849
# 
# Revision: 2
# Processed by: cddbd v1.5.2PL0 Copyright (c) Steve Scherf et al.
# Submitted via: fre:ac v1.0.27
# 
DISCID=ce0b1f10
DTITLE=orchestra bagutti - il grande liscio
DYEAR=2003
DGENRE=
TTITLE0=Tutto pepe
TTITLE1=Il valzer delle candele
TTITLE2=Virtuosa
TTITLE3=ballerina
TTITLE4=celebre mazurka variata
TTITLE5=premiata
TTITLE6=polvere
TTITLE7=il tango delle capinere
TTITLE8=agata
TTITLE9=la ribelle
TTITLE10=salta che ti passa
TTITLE11=western polka
TTITLE12=basame mucho
TTITLE13=on saturday night
TTITLE14=new ricciolo
TTITLE15=il silenzio
EXTD=
EXTT0=
EXTT1=
EXTT2=
EXTT3=
EXTT4=
EXTT5=
EXTT6=
EXTT7=
EXTT8=
EXTT9=
EXTT10=
EXTT11=
EXTT12=
EXTT13=
EXTT14=
EXTT15=
PLAYORDER=
